<svg width="59" height="34" viewBox="0 0 59 34" fill="none" xmlns="http://www.w3.org/2000/svg">
<rect x="0.5" y="0.5" width="58" height="33" fill="url(#paint0_radial_5_113)" stroke="black"/>
<rect x="3" y="3" width="26" height="28" fill="black"/>
<path d="M37.0791 28.1953C35.362 28.1953 34.0477 27.6785 33.1362 26.645C32.2329 25.6034 31.7812 24.1019 31.7812 22.1406V11.9355C31.7812 10.0964 32.2288 8.70068 33.124 7.74854C34.0273 6.79639 35.3457 6.32031 37.0791 6.32031C38.8125 6.32031 40.1268 6.79639 41.022 7.74854C41.9253 8.70068 42.377 10.0964 42.377 11.9355V22.1406C42.377 24.1019 41.9212 25.6034 41.0098 26.645C40.1064 27.6785 38.7962 28.1953 37.0791 28.1953ZM37.1157 24.2402C37.7668 24.2402 38.0923 23.6095 38.0923 22.3481V11.8623C38.0923 10.8044 37.7749 10.2754 37.1401 10.2754C36.424 10.2754 36.0659 10.8166 36.0659 11.8989V22.3726C36.0659 23.0399 36.1473 23.52 36.3101 23.813C36.4728 24.0978 36.7414 24.2402 37.1157 24.2402ZM44.1104 28V6.51562H48.5293L50.5068 16.8062V6.51562H54.6572V28H50.458L48.3096 17.2578V28H44.1104Z" fill="black"/>
<path d="M8.75684 28V6.51562H12.9072V28H8.75684ZM16.4595 28V10.6416H13.9082V6.51562H23.3076V10.6416H20.7563V28H16.4595Z" fill="white"/>
<defs>
<radialGradient id="paint0_radial_5_113" cx="0" cy="0" r="1" gradientUnits="userSpaceOnUse" gradientTransform="translate(29 34) rotate(-90) scale(22 133.74)">
<stop offset="0.035" stop-color="#33BBCF"/>
<stop offset="1" stop-color="#BEF3F5"/>
</radialGradient>
</defs>
</svg>
